<?xml version="1.0" encoding="iso-8859-1"?>
<!-- Generator: Adobe Illustrator 19.0.0, SVG Export Plug-In . SVG Version: 6.00 Build 0)  -->
<svg version="1.1" id="Capa_1" xmlns="http://www.w3.org/2000/svg" xmlns:xlink="http://www.w3.org/1999/xlink" x="0px" y="0px"
	 viewBox="0 0 470 470" style="enable-background:new 0 0 470 470;" xml:space="preserve">
<g>
	<path d="M466.243,172.903l-22.575-13c-3.59-2.066-8.175-0.832-10.242,2.757c-2.067,3.589-0.833,8.175,2.756,10.242L455,183.739
		v35.737l-18.818,10.836c-3.589,2.067-4.823,6.653-2.756,10.242c1.388,2.411,3.911,3.759,6.506,3.759
		c1.27,0,2.557-0.323,3.736-1.002l22.575-13c2.324-1.339,3.757-3.817,3.757-6.5v-44.409C470,176.72,468.567,174.242,466.243,172.903
		z"/>
	<path d="M409.925,29.257c-4.143,0-7.5,3.358-7.5,7.5v18.475l-216.958,80.624H31.188C13.991,135.855,0,149.846,0,167.043v69.128
		c0,17.197,13.991,31.188,31.188,31.188h18.4v131.736c0,22.964,18.683,41.647,41.647,41.647h34.147c4.142,0,7.5-3.358,7.5-7.5
		v-94.818h4.344c4.142,0,7.5-3.358,7.5-7.5s-3.358-7.5-7.5-7.5h-4.344v-20.533h4.344c4.142,0,7.5-3.358,7.5-7.5s-3.358-7.5-7.5-7.5
		h-4.344V267.36h23.933c4.142,0,7.5-3.358,7.5-7.5s-3.358-7.5-7.5-7.5H31.188c-8.926,0-16.188-7.262-16.188-16.188v-69.128
		c0-8.926,7.262-16.188,16.188-16.188h148.126V259.86c0,3.134,1.949,5.938,4.888,7.03l218.222,81.093v18.475
		c0,4.142,3.357,7.5,7.5,7.5s7.5-3.358,7.5-7.5V36.757C417.425,32.615,414.067,29.257,409.925,29.257z M117.882,425.743H91.235
		c-14.693,0-26.647-11.954-26.647-26.647v-96.204h53.294V425.743z M117.882,287.893H64.588V267.36h53.294V287.893z M194.315,254.646
		V148.569l208.11-77.335v260.748L194.315,254.646z"/>
</g>
<g>
</g>
<g>
</g>
<g>
</g>
<g>
</g>
<g>
</g>
<g>
</g>
<g>
</g>
<g>
</g>
<g>
</g>
<g>
</g>
<g>
</g>
<g>
</g>
<g>
</g>
<g>
</g>
<g>
</g>
</svg>
