<?xml version="1.0" encoding="utf-8"?>
<!-- Uploaded to SVGRepo https://www.svgrepo.com -->
<svg version="1.1" id="herd-immunity" xmlns="http://www.w3.org/2000/svg" xmlns:xlink="http://www.w3.org/1999/xlink" x="0px"
	 y="0px" viewBox="0 0 256.3 256" style="enable-background:new 0 0 256.3 256;" xml:space="preserve">
<path d="M126.2,113.3h-11.9V44.4L80.7,8.2l8.7-8.1l36.8,39.7V113.3z M112,46.8l-33.3-37l-8.8,8l33.3,37L112,46.8z M130.1,113.3h11.9
	V44.4l33.6-36.3l-8.7-8.1l-36.8,39.7V113.3z M153.1,54.7l33.3-37l-8.8-8l-33.3,37L153.1,54.7z M193.6,123.7
	c9.5,0,17.1,7.7,17.1,17.1c0,9.5-7.7,17.1-17.1,17.1c-9.5,0-17.1-7.7-17.1-17.1C176.5,131.4,184.2,123.7,193.6,123.7z M172.6,166.3
	c9.5,0,17.1,7.7,17.1,17.1c0,9.5-7.7,17.1-17.1,17.1c-9.5,0-17.1-7.7-17.1-17.1C155.5,174,163.1,166.3,172.6,166.3z M145.3,203.7
	H126h-19.3c-11.7,0-19,9.7-19,21.8v29.8h13.1V229c0-1.2,1-2,2-2c1.2,0,2,0.8,2,2v26.3h42.3V229c0-1.2,1-2,2-2c1.2,0,2,1,2,2v26.3
	h13.1v-29.6C164.6,213.4,157.2,203.7,145.3,203.7z M150.1,123.7c9.5,0,17.1,7.7,17.1,17.1c0,9.5-7.7,17.1-17.1,17.1
	c-9.5,0-17.1-7.7-17.1-17.1C132.9,131.4,140.6,123.7,150.1,123.7z M200.4,183.4c0,9.5,7.6,17.1,17.1,17.1s17.1-7.6,17.1-17.1
	s-7.6-17.1-17.1-17.1S200.4,174,200.4,183.4z M198.6,203.7c-11.7,0-19,9.7-19,21.8v29.8h13.1V229c0-1.2,1-2,2-2c1.2,0,2,0.8,2,2
	v26.3h42.3V229c0-1.2,1-2,2-2c1.2,0,2,1,2,2v26.3h13.1v-29.6c0.2-12.3-7.2-22-19-22H218h-19.4V203.7z M38.1,166.3
	c9.5,0,17.1,7.7,17.1,17.1c0,9.5-7.7,17.1-17.1,17.1S21,192.9,21,183.4C21,174,28.7,166.3,38.1,166.3z M12.6,255.3V229
	c0-1.2,1-2,2-2c1.2,0,2,0.8,2,2v26.3H59V229c0-1.2,1-2,2-2c1.2,0,2,1,2,2v26.3h13.1v-29.6c0.2-12.3-7.2-22-19-22H37.9H18.6
	c-11.7,0-19,9.7-19,21.8v29.8L12.6,255.3L12.6,255.3z M108.9,183.4c0,9.5,7.6,17.1,17.1,17.1s17.1-7.6,17.1-17.1
	s-7.6-17.1-17.1-17.1S108.9,174,108.9,183.4z M60,123.7c9.5,0,17.1,7.7,17.1,17.1c0,9.5-7.7,17.1-17.1,17.1s-17.1-7.7-17.1-17.1
	C42.9,131.4,50.6,123.7,60,123.7z M106.2,123.7c9.5,0,17.1,7.7,17.1,17.1c0,9.5-7.7,17.1-17.1,17.1s-17.1-7.7-17.1-17.1
	C89.1,131.4,96.8,123.7,106.2,123.7z M83.2,166.3c9.5,0,17.1,7.7,17.1,17.1c0,9.5-7.7,17.1-17.1,17.1s-17.1-7.7-17.1-17.1
	C66.1,174,73.8,166.3,83.2,166.3z"/>
</svg>
