<?xml version="1.0" encoding="iso-8859-1"?>
<!-- Generator: Adobe Illustrator 18.0.0, SVG Export Plug-In . SVG Version: 6.00 Build 0)  -->
<!DOCTYPE svg PUBLIC "-//W3C//DTD SVG 1.1//EN" "http://www.w3.org/Graphics/SVG/1.1/DTD/svg11.dtd">
<svg version="1.1" id="Capa_1" xmlns="http://www.w3.org/2000/svg" xmlns:xlink="http://www.w3.org/1999/xlink" x="0px" y="0px"
	 viewBox="0 0 294.516 294.516" style="enable-background:new 0 0 294.516 294.516;" xml:space="preserve">
<g>
	<path d="M291.587,189.687l-38.895-38.894c-7.717-7.717-21.766-13.535-32.677-13.535h-102c-13.785,0-25,11.215-25,25v3
		c0,13.785,11.215,25,25,25h26.857l-5.322,5.322c-3.634,3.635-11.881,6.378-16.971,5.657L36.779,188.98
		c-11.29-1.611-24.866,2.239-31.584,8.957c-4.174,4.174-5.958,9.734-4.894,15.254c1.248,6.48,6.191,12.009,13.564,15.168
		l87.925,37.682c9.628,4.127,24.547,5.321,34.704,2.781l36.896-9.225c8.631-2.158,21.762-6.676,29.894-10.286l9.745-4.326
		c3.601-1.599,9.748-0.316,12.408,2.589l35.204,38.439c1.973,2.154,4.671,3.246,7.378,3.246c2.412,0,4.832-0.868,6.751-2.625
		c4.073-3.73,4.351-10.057,0.621-14.129l-35.205-38.438c-8.403-9.176-23.897-12.408-35.272-7.36l-9.745,4.326
		c-7.002,3.108-19.197,7.305-26.63,9.163l-36.896,9.225c-5.906,1.477-16.378,0.636-21.974-1.762l-87.202-37.372
		c3.062-1.205,7.559-2.066,11.486-1.507l85.801,12.258c11.292,1.619,25.879-3.252,33.94-11.314l11.787-11.787
		c8.213-8.213,6.409-15.596,5.252-18.389c-1.157-2.793-5.102-9.289-16.717-9.289h-36c-2.71,0-5-2.29-5-5v-3c0-2.71,2.29-5,5-5h102
		c5.58,0,14.589,3.731,18.535,7.678l38.893,38.894c3.906,3.904,10.236,3.904,14.143,0
		C295.492,199.924,295.492,193.592,291.587,189.687z"/>
	<path d="M20.517,25.258h6.5v56c0,5.522,4.477,10,10,10c5.522,0,10-4.478,10-10v-56h13v89c0,5.522,4.477,10,10,10h132
		c5.522,0,10-4.478,10-10v-89h39.5c5.522,0,10-4.477,10-10s-4.478-10-10-10h-231c-5.523,0-10,4.478-10,10
		S14.994,25.258,20.517,25.258z M192.017,104.258h-112v-79h112V104.258z"/>
</g>
<g>
</g>
<g>
</g>
<g>
</g>
<g>
</g>
<g>
</g>
<g>
</g>
<g>
</g>
<g>
</g>
<g>
</g>
<g>
</g>
<g>
</g>
<g>
</g>
<g>
</g>
<g>
</g>
<g>
</g>
</svg>
