<?xml version="1.0" encoding="iso-8859-1"?>
<!-- Generator: Adobe Illustrator 16.0.0, SVG Export Plug-In . SVG Version: 6.00 Build 0)  -->
<!DOCTYPE svg PUBLIC "-//W3C//DTD SVG 1.1//EN" "http://www.w3.org/Graphics/SVG/1.1/DTD/svg11.dtd">
<svg version="1.1" id="Capa_1" xmlns="http://www.w3.org/2000/svg" xmlns:xlink="http://www.w3.org/1999/xlink" x="0px" y="0px"
	 width="883.701px" height="883.7px" viewBox="0 0 883.701 883.7" style="enable-background:new 0 0 883.701 883.7;"
	 xml:space="preserve">
<g>
	<g>
		<path d="M647.949,719.399c0,6.301-1.1,12.4-3.199,18.101c8.6-2.3,18.4-5.9,28-11.5c33.801-19.3,53.1-54.2,57.4-104
			c1.199-13.7,7.4-26.5,17.6-35.8c10.199-9.4,23.4-14.5,37.199-14.5h0.301h7.4l0.199-26.7c0.1-13.9-11.1-25.2-25-25.2H704.05
			c-13.701,0-24.9,11.1-25,24.8L678.75,590c0.801,46.8-12.199,76.2-30.699,94.5L647.949,719.399z"/>
		<path d="M836.449,602.1l-43.799-0.3h-7.4c0,0-0.1,0-0.199,0c-13,0-23.801,9.9-24.9,22.9c-12.4,143.5-132.5,147.199-144.9,147.199
			c-0.699,0-1,0-1,0l-217.3-0.3c-6.6,0-12-5.399-12-12.1v-3.8c0-6.601,5.4-11.9,12-11.9l0,0l195.9,0.3l0,0
			c13.701,0,24.9-11.1,25-24.899l0.1-14.801l0.201-40.8c0.1-13.8-11-25.1-24.9-25.1l-97.1-0.601c-8.801-0.1-17.5-2.399-25.1-6.899
			c-24.301-14.3-86.801-46.2-162.801-46.2c-36.3,0-75.699,7.3-115.5,27.2l-33.7,0.2c1,4.1,1.5,8.399,1.5,12.899l0.2,214.9
			c0,3.899-0.4,7.7-1.2,11.399h108.4c13.9,0,27.7,1.301,41.3,3.9l53.4,10.1c60.5,11.5,121.901,17.4,183.5,17.801l81.4,0.5
			c0,0,217.199-10.2,233.299-254.9C862.15,614.399,850.849,602.2,836.449,602.1z"/>
		<path d="M127.35,612.3c-3.7-6.2-9.9-10.6-17.3-11.9c-1.4-0.199-2.8-0.399-4.3-0.399l0,0h-10.7h-47.3c-13.8,0-25,11.2-25,25
			l0.2,214.899c0,13.801,11.2,25,25,25l0,0h48h10c1.7,0,3.4-0.199,5-0.5c7.5-1.5,13.8-6.5,17.2-13.199c1.7-3.4,2.7-7.301,2.7-11.4
			l-0.2-214.9C130.85,620.399,129.549,616,127.35,612.3z"/>
		<path d="M614.449,184.8V30c0-16.6-13.398-30-30-30h-36.5c-16.6,0-30,13.4-30,30v58.3l-70.6-70.6c-9.799-9.8-25.6-9.8-35.4,0
			l-237.5,237.5c-12.6,12.6-3.7,34.1,14.1,34.1h32.3c13.8,0,25,11.2,25,25v193.5c0,13.8,11.2,25,25,25h53.3c13.8,0,25-11.2,25-25
			v-86c0-13.8,11.2-25,25-25h111c13.799,0,25,11.2,25,25v86.1c0,13.801,11.199,25,25,25h53.299c13.801,0,25-11.199,25-25V314.4
			c0-13.8,11.201-25,25-25h32.301c17.801,0,26.699-21.5,14.1-34.1L614.449,184.8z"/>
	</g>
</g>
<g>
</g>
<g>
</g>
<g>
</g>
<g>
</g>
<g>
</g>
<g>
</g>
<g>
</g>
<g>
</g>
<g>
</g>
<g>
</g>
<g>
</g>
<g>
</g>
<g>
</g>
<g>
</g>
<g>
</g>
</svg>
