<?xml version="1.0" standalone="no"?>
<!DOCTYPE svg PUBLIC "-//W3C//DTD SVG 20010904//EN"
 "http://www.w3.org/TR/2001/REC-SVG-20010904/DTD/svg10.dtd">
<svg version="1.0" xmlns="http://www.w3.org/2000/svg"
 width="1280.000000pt" height="1097.000000pt" viewBox="0 0 1280.000000 1097.000000"
 preserveAspectRatio="xMidYMid meet">
<metadata>
Created by potrace 1.15, written by Peter Selinger 2001-2017
</metadata>
<g transform="translate(0.000000,1097.000000) scale(0.100000,-0.100000)"
fill="#000000" stroke="none">
<path d="M6075 10789 c-1290 -88 -2494 -641 -3401 -1560 -232 -235 -352 -376
-526 -614 -197 -271 -330 -494 -483 -809 -198 -408 -333 -803 -420 -1231 -220
-1081 -111 -2152 321 -3162 563 -1316 1616 -2349 2934 -2875 1285 -513 2742
-499 4022 38 1274 535 2312 1575 2843 2849 223 535 351 1079 396 1675 15 202
6 736 -15 930 -73 655 -243 1233 -531 1811 -638 1281 -1790 2267 -3150 2697
-422 134 -643 184 -1005 226 -292 35 -693 45 -985 25z m501 -1889 c278 -16
467 -46 729 -115 810 -214 1536 -736 2002 -1440 318 -480 487 -955 555 -1560
16 -144 16 -580 0 -720 -80 -688 -315 -1267 -738 -1815 -114 -148 -436 -470
-584 -584 -223 -172 -414 -291 -653 -406 -491 -236 -966 -344 -1522 -344 -543
-1 -1032 105 -1483 320 -1699 810 -2454 2810 -1715 4543 331 776 953 1424
1715 1786 412 195 858 310 1303 334 205 12 205 12 391 1z"/>
<path d="M6168 8789 c-1409 -91 -2612 -1046 -3021 -2399 -166 -547 -187 -1154
-62 -1715 210 -938 814 -1745 1662 -2218 997 -558 2257 -561 3258 -10 695 383
1233 991 1525 1723 151 379 240 851 240 1275 0 182 -38 501 -86 713 -279 1248
-1251 2238 -2494 2541 -326 79 -693 112 -1022 90z m597 -364 c642 -86 1195
-343 1677 -781 89 -80 164 -162 156 -169 -27 -27 -1283 -953 -1288 -950 -4 3
-101 138 -216 301 -216 308 -318 430 -388 466 -33 17 -63 22 -151 25 l-110 4
-41 -48 -41 -48 -17 -330 c-9 -182 -17 -346 -17 -365 -1 -77 -9 -1 -29 293
-20 283 -20 312 -6 354 l16 46 -43 38 c-23 21 -44 38 -47 38 -3 0 -25 -17 -49
-38 l-44 -38 17 -44 c16 -42 16 -60 -4 -329 -11 -156 -20 -298 -20 -314 0 -16
-2 -27 -4 -25 -3 2 -12 164 -22 359 l-17 355 -41 48 -41 48 -115 -4 c-217 -7
-230 -20 -665 -644 l-210 -301 -445 -4 c-429 -3 -447 -4 -490 -24 -25 -12 -56
-32 -69 -44 -79 -76 -81 -229 -5 -319 61 -71 48 -69 651 -72 l540 -3 45 27
c37 21 71 64 192 237 82 115 150 210 152 210 2 0 4 -260 4 -577 l-1 -578 -901
-670 c-496 -368 -905 -671 -909 -673 -12 -5 -184 354 -228 474 -85 235 -144
480 -172 719 -18 142 -18 538 0 680 111 929 616 1729 1408 2233 299 190 683
341 1039 407 88 17 97 15 107 -20 5 -15 -5 -28 -39 -55 -25 -19 -65 -64 -89
-100 -141 -208 -117 -470 59 -646 161 -161 399 -198 598 -92 171 91 269 255
269 449 0 103 -11 152 -58 241 -68 129 -199 227 -353 263 -63 14 -60 14 135
10 110 -2 254 -11 320 -20z m2183 -1387 c128 -200 248 -455 322 -686 298 -929
142 -1923 -426 -2713 l-59 -82 -5 569 c-6 629 -2 594 -72 661 -56 54 -91 63
-243 63 l-135 0 0 -850 0 -850 37 0 37 0 -34 -30 c-362 -312 -823 -548 -1280
-656 -83 -19 -264 -53 -268 -50 -1 2 6 20 15 42 16 34 18 79 21 367 l3 327
675 0 674 0 0 850 0 849 -157 3 -158 3 -5 145 c-3 86 -10 154 -17 166 -13 23
-70 54 -100 54 -16 0 -32 58 -126 433 -60 237 -110 452 -113 477 -3 25 -10 60
-15 78 -10 29 -8 36 7 47 11 7 307 227 658 488 l639 476 31 -42 c18 -23 60
-86 94 -139z m-2052 -730 c16 -24 32 -48 37 -54 4 -8 -8 -24 -33 -44 l-40 -32
0 86 c0 47 2 86 4 86 2 0 16 -19 32 -42z m296 -734 c48 -192 88 -350 88 -351
0 -2 -15 -9 -34 -17 -61 -25 -70 -52 -75 -213 l-3 -143 -154 0 -154 0 0 454 0
454 113 85 c61 47 116 85 121 83 5 -1 49 -159 98 -352z m234 -580 c86 -37 206
-12 268 55 50 53 56 45 56 -84 l0 -115 -215 0 -215 0 0 117 0 117 34 -37 c19
-20 51 -44 72 -53z m-1155 -476 c1 -194 4 -733 8 -1198 l6 -845 22 -44 c12
-25 21 -47 19 -49 -2 -2 -52 0 -110 4 l-105 7 22 41 22 41 3 1198 2 1197 55 0
55 0 1 -352z m-688 -2026 c-3 -6 -173 48 -279 89 -404 153 -774 395 -1082 709
-98 99 -257 287 -257 303 0 6 362 280 805 610 l805 599 5 -1154 c3 -634 4
-1155 3 -1156z"/>
</g>
</svg>
